STARTFONT 2.1
COMMENT
COMMENT Converted from OpenType font "truongsa_regular.ttf" by "otf2bdf 3.0".
COMMENT
FONT -FreeType-VPS Truong Sa Light Hoa-Medium-R-Normal--8-60-100-100-P-44-ISO10646-1
SIZE 6 100 100
FONTBOUNDINGBOX 8 11 0 -2
STARTPROPERTIES 19
FOUNDRY "FreeType"
FAMILY_NAME "VPS Truong Sa Light Hoa"
WEIGHT_NAME "Medium"
SLANT "R"
SETWIDTH_NAME "Normal"
ADD_STYLE_NAME ""
PIXEL_SIZE 8
POINT_SIZE 60
RESOLUTION_X 100
RESOLUTION_Y 100
SPACING "P"
AVERAGE_WIDTH 44
CHARSET_REGISTRY "ISO10646"
CHARSET_ENCODING "1"
FONT_ASCENT 7
FONT_DESCENT 1
COPYRIGHT "VPS Font"
_OTF_FONTFILE "truongsa_regular.ttf"
_OTF_PSNAME "VPS Truong Sa Light Hoa"
ENDPROPERTIES
CHARS 270
STARTCHAR 0002
ENCODING 2
SWIDTH 600 0
DWIDTH 5 0
BBX 5 7 0 -1
BITMAP
20
50
50
78
88
88
20
ENDCHAR
STARTCHAR 0003
ENCODING 3
SWIDTH 600 0
DWIDTH 5 0
BBX 5 9 0 -1
BITMAP
20
00
20
50
50
78
88
88
20
ENDCHAR
STARTCHAR 0004
ENCODING 4
SWIDTH 600 0
DWIDTH 5 0
BBX 5 9 0 -1
BITMAP
10
00
20
50
50
78
88
88
20
ENDCHAR
STARTCHAR 0005
ENCODING 5
SWIDTH 600 0
DWIDTH 5 0
BBX 5 7 0 -1
BITMAP
78
80
F0
80
80
58
20
ENDCHAR
STARTCHAR 0006
ENCODING 6
SWIDTH 600 0
DWIDTH 5 0
BBX 5 9 0 -1
BITMAP
20
00
78
80
F0
80
80
58
20
ENDCHAR
STARTCHAR 0015
ENCODING 21
SWIDTH 600 0
DWIDTH 5 0
BBX 6 9 0 -1
BITMAP
04
00
4C
88
88
88
88
48
30
ENDCHAR
STARTCHAR 0019
ENCODING 25
SWIDTH 600 0
DWIDTH 5 0
BBX 5 6 0 -1
BITMAP
88
50
50
20
20
20
ENDCHAR
STARTCHAR 001C
ENCODING 28
SWIDTH 600 0
DWIDTH 5 0
BBX 5 9 0 0
BITMAP
30
20
00
20
50
50
78
88
88
ENDCHAR
STARTCHAR 001D
ENCODING 29
SWIDTH 600 0
DWIDTH 5 0
BBX 6 9 0 0
BITMAP
30
04
00
4C
88
88
88
88
78
ENDCHAR
STARTCHAR 0020
ENCODING 32
SWIDTH 240 0
DWIDTH 2 0
BBX 0 0 0 0
BITMAP
ENDCHAR
STARTCHAR 0021
ENCODING 33
SWIDTH 240 0
DWIDTH 2 0
BBX 1 6 1 0
BITMAP
80
80
80
80
00
80
ENDCHAR
STARTCHAR 0022
ENCODING 34
SWIDTH 240 0
DWIDTH 2 0
BBX 1 2 0 4
BITMAP
80
80
ENDCHAR
STARTCHAR 0023
ENCODING 35
SWIDTH 720 0
DWIDTH 6 0
BBX 4 6 1 0
BITMAP
20
50
70
A0
F0
C0
ENDCHAR
STARTCHAR 0024
ENCODING 36
SWIDTH 480 0
DWIDTH 4 0
BBX 4 7 0 0
BITMAP
F0
A0
60
30
30
70
20
ENDCHAR
STARTCHAR 0025
ENCODING 37
SWIDTH 840 0
DWIDTH 7 0
BBX 6 6 1 0
BITMAP
F0
B0
E0
38
54
5C
ENDCHAR
STARTCHAR 0026
ENCODING 38
SWIDTH 720 0
DWIDTH 6 0
BBX 6 6 0 0
BITMAP
70
50
60
A8
98
7C
ENDCHAR
STARTCHAR 0027
ENCODING 39
SWIDTH 120 0
DWIDTH 1 0
BBX 1 2 0 4
BITMAP
80
80
ENDCHAR
STARTCHAR 0028
ENCODING 40
SWIDTH 240 0
DWIDTH 2 0
BBX 1 7 1 -1
BITMAP
80
80
80
80
80
80
80
ENDCHAR
STARTCHAR 0029
ENCODING 41
SWIDTH 240 0
DWIDTH 2 0
BBX 1 7 1 -1
BITMAP
80
80
80
80
80
80
80
ENDCHAR
STARTCHAR 002A
ENCODING 42
SWIDTH 480 0
DWIDTH 4 0
BBX 2 3 1 3
BITMAP
80
C0
C0
ENDCHAR
STARTCHAR 002B
ENCODING 43
SWIDTH 720 0
DWIDTH 6 0
BBX 5 5 1 0
BITMAP
20
20
F8
20
20
ENDCHAR
STARTCHAR 002C
ENCODING 44
SWIDTH 240 0
DWIDTH 2 0
BBX 1 2 1 -1
BITMAP
80
80
ENDCHAR
STARTCHAR 002D
ENCODING 45
SWIDTH 240 0
DWIDTH 2 0
BBX 1 1 1 1
BITMAP
80
ENDCHAR
STARTCHAR 002E
ENCODING 46
SWIDTH 240 0
DWIDTH 2 0
BBX 1 1 1 0
BITMAP
80
ENDCHAR
STARTCHAR 002F
ENCODING 47
SWIDTH 240 0
DWIDTH 2 0
BBX 2 5 0 0
BITMAP
40
80
80
80
80
ENDCHAR
STARTCHAR 0030
ENCODING 48
SWIDTH 480 0
DWIDTH 4 0
BBX 4 6 0 0
BITMAP
70
90
90
90
90
70
ENDCHAR
STARTCHAR 0031
ENCODING 49
SWIDTH 480 0
DWIDTH 4 0
BBX 2 6 1 0
BITMAP
C0
40
40
40
40
40
ENDCHAR
STARTCHAR 0032
ENCODING 50
SWIDTH 480 0
DWIDTH 4 0
BBX 4 6 0 0
BITMAP
F0
90
10
20
40
F0
ENDCHAR
STARTCHAR 0033
ENCODING 51
SWIDTH 480 0
DWIDTH 4 0
BBX 4 6 0 0
BITMAP
F0
10
20
10
90
F0
ENDCHAR
STARTCHAR 0034
ENCODING 52
SWIDTH 480 0
DWIDTH 4 0
BBX 4 6 0 0
BITMAP
20
60
A0
A0
70
20
ENDCHAR
STARTCHAR 0035
ENCODING 53
SWIDTH 480 0
DWIDTH 4 0
BBX 4 6 0 0
BITMAP
60
80
60
10
90
F0
ENDCHAR
STARTCHAR 0036
ENCODING 54
SWIDTH 480 0
DWIDTH 4 0
BBX 4 6 0 0
BITMAP
20
40
B0
D0
90
70
ENDCHAR
STARTCHAR 0037
ENCODING 55
SWIDTH 480 0
DWIDTH 4 0
BBX 3 6 1 0
BITMAP
E0
20
40
40
40
80
ENDCHAR
STARTCHAR 0038
ENCODING 56
SWIDTH 480 0
DWIDTH 4 0
BBX 4 6 0 0
BITMAP
F0
90
60
90
90
F0
ENDCHAR
STARTCHAR 0039
ENCODING 57
SWIDTH 480 0
DWIDTH 4 0
BBX 4 6 0 0
BITMAP
F0
90
90
70
10
20
ENDCHAR
STARTCHAR 003A
ENCODING 58
SWIDTH 240 0
DWIDTH 2 0
BBX 1 4 1 0
BITMAP
80
00
00
80
ENDCHAR
STARTCHAR 003B
ENCODING 59
SWIDTH 240 0
DWIDTH 2 0
BBX 1 2 1 2
BITMAP
80
80
ENDCHAR
STARTCHAR 003C
ENCODING 60
SWIDTH 720 0
DWIDTH 6 0
BBX 5 5 1 0
BITMAP
08
30
C0
60
18
ENDCHAR
STARTCHAR 003D
ENCODING 61
SWIDTH 720 0
DWIDTH 6 0
BBX 5 3 1 1
BITMAP
F8
00
F8
ENDCHAR
STARTCHAR 003E
ENCODING 62
SWIDTH 720 0
DWIDTH 6 0
BBX 5 4 1 1
BITMAP
60
18
30
C0
ENDCHAR
STARTCHAR 003F
ENCODING 63
SWIDTH 360 0
DWIDTH 3 0
BBX 3 6 0 0
BITMAP
E0
20
20
40
00
40
ENDCHAR
STARTCHAR 0040
ENCODING 64
SWIDTH 960 0
DWIDTH 8 0
BBX 7 7 1 -1
BITMAP
78
84
BA
CA
D4
A8
7C
ENDCHAR
STARTCHAR 0041
ENCODING 65
SWIDTH 600 0
DWIDTH 5 0
BBX 5 6 0 0
BITMAP
20
50
50
78
88
88
ENDCHAR
STARTCHAR 0042
ENCODING 66
SWIDTH 600 0
DWIDTH 5 0
BBX 4 6 1 0
BITMAP
F0
90
A0
D0
90
F0
ENDCHAR
STARTCHAR 0043
ENCODING 67
SWIDTH 600 0
DWIDTH 5 0
BBX 5 6 0 0
BITMAP
78
80
80
80
80
78
ENDCHAR
STARTCHAR 0044
ENCODING 68
SWIDTH 720 0
DWIDTH 6 0
BBX 6 6 0 0
BITMAP
70
88
84
84
88
70
ENDCHAR
STARTCHAR 0045
ENCODING 69
SWIDTH 600 0
DWIDTH 5 0
BBX 5 6 0 0
BITMAP
78
80
F0
80
80
78
ENDCHAR
STARTCHAR 0046
ENCODING 70
SWIDTH 480 0
DWIDTH 4 0
BBX 5 6 0 0
BITMAP
78
80
80
F0
80
40
ENDCHAR
STARTCHAR 0047
ENCODING 71
SWIDTH 720 0
DWIDTH 6 0
BBX 6 6 0 0
BITMAP
3C
44
80
84
84
7C
ENDCHAR
STARTCHAR 0048
ENCODING 72
SWIDTH 720 0
DWIDTH 6 0
BBX 6 6 0 0
BITMAP
44
84
7C
84
84
44
ENDCHAR
STARTCHAR 0049
ENCODING 73
SWIDTH 240 0
DWIDTH 2 0
BBX 1 6 1 0
BITMAP
80
80
80
80
80
80
ENDCHAR
STARTCHAR 004A
ENCODING 74
SWIDTH 360 0
DWIDTH 3 0
BBX 3 6 0 0
BITMAP
20
20
20
20
A0
E0
ENDCHAR
STARTCHAR 004B
ENCODING 75
SWIDTH 600 0
DWIDTH 5 0
BBX 5 6 0 0
BITMAP
48
90
A0
50
88
48
ENDCHAR
STARTCHAR 004C
ENCODING 76
SWIDTH 480 0
DWIDTH 4 0
BBX 5 6 0 0
BITMAP
40
80
80
80
80
78
ENDCHAR
STARTCHAR 004D
ENCODING 77
SWIDTH 720 0
DWIDTH 6 0
BBX 6 6 0 0
BITMAP
44
C4
AC
B4
94
84
ENDCHAR
STARTCHAR 004E
ENCODING 78
SWIDTH 720 0
DWIDTH 6 0
BBX 5 6 0 0
BITMAP
48
A8
98
98
88
88
ENDCHAR
STARTCHAR 004F
ENCODING 79
SWIDTH 720 0
DWIDTH 6 0
BBX 6 6 0 0
BITMAP
78
84
84
84
84
78
ENDCHAR
STARTCHAR 0050
ENCODING 80
SWIDTH 600 0
DWIDTH 5 0
BBX 5 6 0 0
BITMAP
70
88
88
70
80
40
ENDCHAR
STARTCHAR 0051
ENCODING 81
SWIDTH 720 0
DWIDTH 6 0
BBX 6 7 0 -1
BITMAP
78
84
84
84
84
58
2C
ENDCHAR
STARTCHAR 0052
ENCODING 82
SWIDTH 600 0
DWIDTH 5 0
BBX 5 6 0 0
BITMAP
78
88
90
F0
88
48
ENDCHAR
STARTCHAR 0053
ENCODING 83
SWIDTH 480 0
DWIDTH 4 0
BBX 5 6 0 0
BITMAP
F0
80
60
10
88
F0
ENDCHAR
STARTCHAR 0054
ENCODING 84
SWIDTH 600 0
DWIDTH 5 0
BBX 5 6 0 0
BITMAP
F8
20
20
20
20
20
ENDCHAR
STARTCHAR 0055
ENCODING 85
SWIDTH 600 0
DWIDTH 5 0
BBX 5 6 0 0
BITMAP
48
88
88
88
88
78
ENDCHAR
STARTCHAR 0056
ENCODING 86
SWIDTH 600 0
DWIDTH 5 0
BBX 5 6 0 0
BITMAP
88
88
48
50
50
20
ENDCHAR
STARTCHAR 0057
ENCODING 87
SWIDTH 840 0
DWIDTH 7 0
BBX 7 6 0 0
BITMAP
92
92
9A
6A
6C
24
ENDCHAR
STARTCHAR 0058
ENCODING 88
SWIDTH 600 0
DWIDTH 5 0
BBX 5 6 0 0
BITMAP
48
50
20
30
50
88
ENDCHAR
STARTCHAR 0059
ENCODING 89
SWIDTH 600 0
DWIDTH 5 0
BBX 5 6 0 0
BITMAP
88
50
50
20
20
20
ENDCHAR
STARTCHAR 005A
ENCODING 90
SWIDTH 480 0
DWIDTH 4 0
BBX 4 6 0 0
BITMAP
F0
10
20
40
40
F0
ENDCHAR
STARTCHAR 005B
ENCODING 91
SWIDTH 240 0
DWIDTH 2 0
BBX 1 7 1 -1
BITMAP
80
80
80
80
80
80
80
ENDCHAR
STARTCHAR 005C
ENCODING 92
SWIDTH 240 0
DWIDTH 2 0
BBX 2 5 0 0
BITMAP
80
80
80
40
40
ENDCHAR
STARTCHAR 005D
ENCODING 93
SWIDTH 240 0
DWIDTH 2 0
BBX 1 7 1 -1
BITMAP
80
80
80
80
80
80
80
ENDCHAR
STARTCHAR 005E
ENCODING 94
SWIDTH 960 0
DWIDTH 8 0
BBX 4 2 2 4
BITMAP
60
90
ENDCHAR
STARTCHAR 005F
ENCODING 95
SWIDTH 480 0
DWIDTH 4 0
BBX 4 1 0 -2
BITMAP
F0
ENDCHAR
STARTCHAR 0060
ENCODING 96
SWIDTH 480 0
DWIDTH 4 0
BBX 2 2 1 4
BITMAP
80
40
ENDCHAR
STARTCHAR 0061
ENCODING 97
SWIDTH 600 0
DWIDTH 5 0
BBX 5 6 0 0
BITMAP
20
50
50
78
88
88
ENDCHAR
STARTCHAR 0062
ENCODING 98
SWIDTH 600 0
DWIDTH 5 0
BBX 4 6 1 0
BITMAP
F0
90
A0
D0
90
F0
ENDCHAR
STARTCHAR 0063
ENCODING 99
SWIDTH 600 0
DWIDTH 5 0
BBX 5 6 0 0
BITMAP
78
80
80
80
80
78
ENDCHAR
STARTCHAR 0064
ENCODING 100
SWIDTH 720 0
DWIDTH 6 0
BBX 6 6 0 0
BITMAP
70
88
84
84
88
70
ENDCHAR
STARTCHAR 0065
ENCODING 101
SWIDTH 600 0
DWIDTH 5 0
BBX 5 6 0 0
BITMAP
78
80
F0
80
80
78
ENDCHAR
STARTCHAR 0066
ENCODING 102
SWIDTH 480 0
DWIDTH 4 0
BBX 5 6 0 0
BITMAP
78
80
80
F0
80
40
ENDCHAR
STARTCHAR 0067
ENCODING 103
SWIDTH 720 0
DWIDTH 6 0
BBX 6 6 0 0
BITMAP
3C
44
80
84
84
7C
ENDCHAR
STARTCHAR 0068
ENCODING 104
SWIDTH 720 0
DWIDTH 6 0
BBX 6 6 0 0
BITMAP
44
84
7C
84
84
44
ENDCHAR
STARTCHAR 0069
ENCODING 105
SWIDTH 240 0
DWIDTH 2 0
BBX 1 6 1 0
BITMAP
80
80
80
80
80
80
ENDCHAR
STARTCHAR 006A
ENCODING 106
SWIDTH 360 0
DWIDTH 3 0
BBX 3 6 0 0
BITMAP
20
20
20
20
A0
E0
ENDCHAR
STARTCHAR 006B
ENCODING 107
SWIDTH 600 0
DWIDTH 5 0
BBX 5 6 0 0
BITMAP
48
90
A0
50
88
48
ENDCHAR
STARTCHAR 006C
ENCODING 108
SWIDTH 480 0
DWIDTH 4 0
BBX 5 6 0 0
BITMAP
40
80
80
80
80
78
ENDCHAR
STARTCHAR 006D
ENCODING 109
SWIDTH 720 0
DWIDTH 6 0
BBX 6 6 0 0
BITMAP
44
C4
AC
B4
94
84
ENDCHAR
STARTCHAR 006E
ENCODING 110
SWIDTH 720 0
DWIDTH 6 0
BBX 5 6 0 0
BITMAP
48
A8
98
98
88
88
ENDCHAR
STARTCHAR 006F
ENCODING 111
SWIDTH 720 0
DWIDTH 6 0
BBX 6 6 0 0
BITMAP
78
84
84
84
84
78
ENDCHAR
STARTCHAR 0070
ENCODING 112
SWIDTH 600 0
DWIDTH 5 0
BBX 5 6 0 0
BITMAP
70
88
88
70
80
40
ENDCHAR
STARTCHAR 0071
ENCODING 113
SWIDTH 720 0
DWIDTH 6 0
BBX 6 7 0 -1
BITMAP
78
84
84
84
84
58
2C
ENDCHAR
STARTCHAR 0072
ENCODING 114
SWIDTH 600 0
DWIDTH 5 0
BBX 5 6 0 0
BITMAP
78
88
90
F0
88
48
ENDCHAR
STARTCHAR 0073
ENCODING 115
SWIDTH 480 0
DWIDTH 4 0
BBX 5 6 0 0
BITMAP
F0
80
60
10
88
F0
ENDCHAR
STARTCHAR 0074
ENCODING 116
SWIDTH 600 0
DWIDTH 5 0
BBX 5 6 0 0
BITMAP
F8
20
20
20
20
20
ENDCHAR
STARTCHAR 0075
ENCODING 117
SWIDTH 600 0
DWIDTH 5 0
BBX 5 6 0 0
BITMAP
48
88
88
88
88
78
ENDCHAR
STARTCHAR 0076
ENCODING 118
SWIDTH 600 0
DWIDTH 5 0
BBX 5 6 0 0
BITMAP
88
88
48
50
50
20
ENDCHAR
STARTCHAR 0077
ENCODING 119
SWIDTH 840 0
DWIDTH 7 0
BBX 7 6 0 0
BITMAP
92
92
9A
6A
6C
24
ENDCHAR
STARTCHAR 0078
ENCODING 120
SWIDTH 600 0
DWIDTH 5 0
BBX 5 6 0 0
BITMAP
48
50
20
30
50
88
ENDCHAR
STARTCHAR 0079
ENCODING 121
SWIDTH 600 0
DWIDTH 5 0
BBX 5 6 0 0
BITMAP
88
50
50
20
20
20
ENDCHAR
STARTCHAR 007A
ENCODING 122
SWIDTH 480 0
DWIDTH 4 0
BBX 4 6 0 0
BITMAP
F0
10
20
40
40
F0
ENDCHAR
STARTCHAR 007B
ENCODING 123
SWIDTH 480 0
DWIDTH 4 0
BBX 2 7 1 -1
BITMAP
40
80
80
80
80
80
40
ENDCHAR
STARTCHAR 007C
ENCODING 124
SWIDTH 480 0
DWIDTH 4 0
BBX 1 7 2 -2
BITMAP
80
80
80
80
80
80
80
ENDCHAR
STARTCHAR 007D
ENCODING 125
SWIDTH 480 0
DWIDTH 4 0
BBX 2 7 1 -1
BITMAP
80
80
80
40
80
80
80
ENDCHAR
STARTCHAR 007E
ENCODING 126
SWIDTH 720 0
DWIDTH 6 0
BBX 5 1 1 2
BITMAP
F8
ENDCHAR
STARTCHAR 0080
ENCODING 128
SWIDTH 600 0
DWIDTH 5 0
BBX 5 8 0 0
BITMAP
20
00
20
50
50
78
88
88
ENDCHAR
STARTCHAR 0081
ENCODING 129
SWIDTH 600 0
DWIDTH 5 0
BBX 5 6 0 2
BITMAP
20
50
50
78
88
88
ENDCHAR
STARTCHAR 008D
ENCODING 141
SWIDTH 600 0
DWIDTH 5 0
BBX 5 9 0 0
BITMAP
10
10
00
20
50
50
78
88
88
ENDCHAR
STARTCHAR 008E
ENCODING 142
SWIDTH 600 0
DWIDTH 5 0
BBX 5 9 0 0
BITMAP
40
10
00
20
50
50
78
88
88
ENDCHAR
STARTCHAR 008F
ENCODING 143
SWIDTH 600 0
DWIDTH 5 0
BBX 5 8 0 1
BITMAP
10
00
20
50
50
78
88
88
ENDCHAR
STARTCHAR 0090
ENCODING 144
SWIDTH 600 0
DWIDTH 5 0
BBX 5 9 0 0
BITMAP
08
20
00
78
80
F0
80
80
78
ENDCHAR
STARTCHAR 009D
ENCODING 157
SWIDTH 720 0
DWIDTH 6 0
BBX 6 9 0 0
BITMAP
08
10
04
78
84
84
84
84
78
ENDCHAR
STARTCHAR 009E
ENCODING 158
SWIDTH 720 0
DWIDTH 6 0
BBX 6 8 0 1
BITMAP
20
04
78
84
84
84
84
78
ENDCHAR
STARTCHAR 00A0
ENCODING 160
SWIDTH 480 0
DWIDTH 4 0
BBX 0 0 0 0
BITMAP
ENDCHAR
STARTCHAR 00A1
ENCODING 161
SWIDTH 600 0
DWIDTH 5 0
BBX 5 9 0 0
BITMAP
10
10
00
20
50
50
78
88
88
ENDCHAR
STARTCHAR 00A2
ENCODING 162
SWIDTH 600 0
DWIDTH 5 0
BBX 5 9 0 0
BITMAP
40
10
00
20
50
50
78
88
88
ENDCHAR
STARTCHAR 00A3
ENCODING 163
SWIDTH 600 0
DWIDTH 5 0
BBX 5 8 0 1
BITMAP
10
00
20
50
50
78
88
88
ENDCHAR
STARTCHAR 00A4
ENCODING 164
SWIDTH 600 0
DWIDTH 5 0
BBX 5 9 0 0
BITMAP
30
10
00
20
50
50
78
88
88
ENDCHAR
STARTCHAR 00A5
ENCODING 165
SWIDTH 600 0
DWIDTH 5 0
BBX 5 9 0 -1
BITMAP
10
00
20
50
50
78
88
88
20
ENDCHAR
STARTCHAR 00A6
ENCODING 166
SWIDTH 720 0
DWIDTH 6 0
BBX 6 9 0 0
BITMAP
30
00
04
78
84
84
84
84
78
ENDCHAR
STARTCHAR 00A7
ENCODING 167
SWIDTH 720 0
DWIDTH 6 0
BBX 6 9 0 0
BITMAP
08
10
04
78
84
84
84
84
78
ENDCHAR
STARTCHAR 00A8
ENCODING 168
SWIDTH 600 0
DWIDTH 5 0
BBX 5 8 0 0
BITMAP
20
00
48
88
88
88
88
78
ENDCHAR
STARTCHAR 00A9
ENCODING 169
SWIDTH 720 0
DWIDTH 6 0
BBX 6 8 0 1
BITMAP
20
04
78
84
84
84
84
78
ENDCHAR
STARTCHAR 00AA
ENCODING 170
SWIDTH 720 0
DWIDTH 6 0
BBX 6 9 0 0
BITMAP
10
20
04
78
84
84
84
84
78
ENDCHAR
STARTCHAR 00AB
ENCODING 171
SWIDTH 720 0
DWIDTH 6 0
BBX 6 9 0 0
BITMAP
30
00
04
78
84
84
84
84
78
ENDCHAR
STARTCHAR 00AC
ENCODING 172
SWIDTH 600 0
DWIDTH 5 0
BBX 5 7 0 1
BITMAP
10
48
88
88
88
88
78
ENDCHAR
STARTCHAR 00AD
ENCODING 173
SWIDTH 600 0
DWIDTH 5 0
BBX 6 9 0 0
BITMAP
08
14
00
4C
88
88
88
88
78
ENDCHAR
STARTCHAR 00AE
ENCODING 174
SWIDTH 720 0
DWIDTH 6 0
BBX 6 8 0 0
BITMAP
04
78
84
84
84
84
48
30
ENDCHAR
STARTCHAR 00AF
ENCODING 175
SWIDTH 600 0
DWIDTH 5 0
BBX 6 8 0 1
BITMAP
24
00
4C
88
88
88
88
78
ENDCHAR
STARTCHAR 00B0
ENCODING 176
SWIDTH 720 0
DWIDTH 6 0
BBX 6 8 0 1
BITMAP
18
00
78
84
84
84
84
78
ENDCHAR
STARTCHAR 00B1
ENCODING 177
SWIDTH 600 0
DWIDTH 5 0
BBX 6 9 0 0
BITMAP
10
14
00
4C
88
88
88
88
78
ENDCHAR
STARTCHAR 00B2
ENCODING 178
SWIDTH 600 0
DWIDTH 5 0
BBX 5 8 0 0
BITMAP
40
00
88
50
50
20
20
20
ENDCHAR
STARTCHAR 00B3
ENCODING 179
SWIDTH 600 0
DWIDTH 5 0
BBX 5 8 0 0
BITMAP
20
00
88
50
50
20
20
20
ENDCHAR
STARTCHAR 00B4
ENCODING 180
SWIDTH 240 0
DWIDTH 2 0
BBX 1 8 1 0
BITMAP
80
00
80
80
80
80
80
80
ENDCHAR
STARTCHAR 00B5
ENCODING 181
SWIDTH 240 0
DWIDTH 2 0
BBX 2 8 0 0
BITMAP
80
00
40
40
40
40
40
40
ENDCHAR
STARTCHAR 00B6
ENCODING 182
SWIDTH 720 0
DWIDTH 6 0
BBX 6 9 0 -1
BITMAP
10
00
78
84
84
84
84
48
30
ENDCHAR
STARTCHAR 00B8
ENCODING 184
SWIDTH 240 0
DWIDTH 2 0
BBX 1 7 1 1
BITMAP
80
80
80
80
80
80
80
ENDCHAR
STARTCHAR 00B9
ENCODING 185
SWIDTH 720 0
DWIDTH 6 0
BBX 6 8 0 0
BITMAP
10
00
78
84
84
84
84
78
ENDCHAR
STARTCHAR 00BA
ENCODING 186
SWIDTH 600 0
DWIDTH 5 0
BBX 6 9 0 0
BITMAP
10
14
00
4C
88
88
88
88
78
ENDCHAR
STARTCHAR 00BB
ENCODING 187
SWIDTH 600 0
DWIDTH 5 0
BBX 6 9 0 0
BITMAP
30
04
00
4C
88
88
88
88
78
ENDCHAR
STARTCHAR 00BC
ENCODING 188
SWIDTH 720 0
DWIDTH 6 0
BBX 6 8 0 0
BITMAP
20
00
78
84
84
84
84
78
ENDCHAR
STARTCHAR 00BD
ENCODING 189
SWIDTH 720 0
DWIDTH 6 0
BBX 6 6 0 2
BITMAP
78
84
84
84
84
78
ENDCHAR
STARTCHAR 00BE
ENCODING 190
SWIDTH 720 0
DWIDTH 6 0
BBX 6 8 0 0
BITMAP
30
00
78
84
84
84
84
78
ENDCHAR
STARTCHAR 00BF
ENCODING 191
SWIDTH 600 0
DWIDTH 5 0
BBX 6 9 0 -1
BITMAP
04
00
4C
88
88
88
88
48
30
ENDCHAR
STARTCHAR 00C0
ENCODING 192
SWIDTH 600 0
DWIDTH 5 0
BBX 5 9 0 0
BITMAP
80
20
00
20
50
50
78
88
88
ENDCHAR
STARTCHAR 00C1
ENCODING 193
SWIDTH 600 0
DWIDTH 5 0
BBX 5 8 0 0
BITMAP
10
00
20
50
50
78
88
88
ENDCHAR
STARTCHAR 00C2
ENCODING 194
SWIDTH 600 0
DWIDTH 5 0
BBX 5 8 0 0
BITMAP
20
00
20
50
50
78
88
88
ENDCHAR
STARTCHAR 00C3
ENCODING 195
SWIDTH 600 0
DWIDTH 5 0
BBX 5 9 0 0
BITMAP
08
20
00
20
50
50
78
88
88
ENDCHAR
STARTCHAR 00C4
ENCODING 196
SWIDTH 600 0
DWIDTH 5 0
BBX 5 9 0 0
BITMAP
08
20
00
20
50
50
78
88
88
ENDCHAR
STARTCHAR 00C5
ENCODING 197
SWIDTH 600 0
DWIDTH 5 0
BBX 5 9 0 0
BITMAP
30
20
00
20
50
50
78
88
88
ENDCHAR
STARTCHAR 00C6
ENCODING 198
SWIDTH 600 0
DWIDTH 5 0
BBX 5 9 0 -1
BITMAP
20
00
20
50
50
78
88
88
20
ENDCHAR
STARTCHAR 00C7
ENCODING 199
SWIDTH 720 0
DWIDTH 6 0
BBX 5 6 1 0
BITMAP
F0
90
88
88
90
F0
ENDCHAR
STARTCHAR 00C8
ENCODING 200
SWIDTH 600 0
DWIDTH 5 0
BBX 5 6 0 2
BITMAP
78
80
F0
80
80
78
ENDCHAR
STARTCHAR 00C9
ENCODING 201
SWIDTH 600 0
DWIDTH 5 0
BBX 5 8 0 0
BITMAP
10
00
78
80
F0
80
80
78
ENDCHAR
STARTCHAR 00CA
ENCODING 202
SWIDTH 600 0
DWIDTH 5 0
BBX 5 8 0 0
BITMAP
20
00
78
80
F0
80
80
78
ENDCHAR
STARTCHAR 00CB
ENCODING 203
SWIDTH 600 0
DWIDTH 5 0
BBX 5 7 0 -1
BITMAP
78
80
F0
80
80
58
20
ENDCHAR
STARTCHAR 00CC
ENCODING 204
SWIDTH 240 0
DWIDTH 2 0
BBX 1 8 1 1
BITMAP
80
00
80
80
80
80
80
80
ENDCHAR
STARTCHAR 00CD
ENCODING 205
SWIDTH 600 0
DWIDTH 5 0
BBX 5 9 0 0
BITMAP
30
20
00
78
80
F0
80
80
78
ENDCHAR
STARTCHAR 00CE
ENCODING 206
SWIDTH 240 0
DWIDTH 2 0
BBX 1 6 1 -1
BITMAP
80
80
80
80
80
80
ENDCHAR
STARTCHAR 00CF
ENCODING 207
SWIDTH 600 0
DWIDTH 5 0
BBX 5 8 0 0
BITMAP
20
00
88
50
50
20
20
20
ENDCHAR
STARTCHAR 00D0
ENCODING 208
SWIDTH 600 0
DWIDTH 5 0
BBX 6 8 0 0
BITMAP
04
00
4C
88
88
88
88
78
ENDCHAR
STARTCHAR 00D1
ENCODING 209
SWIDTH 600 0
DWIDTH 5 0
BBX 5 6 0 2
BITMAP
48
88
88
88
88
78
ENDCHAR
STARTCHAR 00D2
ENCODING 210
SWIDTH 720 0
DWIDTH 6 0
BBX 6 9 0 0
BITMAP
80
50
00
78
84
84
84
84
78
ENDCHAR
STARTCHAR 00D3
ENCODING 211
SWIDTH 720 0
DWIDTH 6 0
BBX 6 9 0 0
BITMAP
04
10
00
78
84
84
84
84
78
ENDCHAR
STARTCHAR 00D4
ENCODING 212
SWIDTH 720 0
DWIDTH 6 0
BBX 6 8 0 0
BITMAP
10
00
78
84
84
84
84
78
ENDCHAR
STARTCHAR 00D5
ENCODING 213
SWIDTH 720 0
DWIDTH 6 0
BBX 6 6 0 2
BITMAP
78
84
84
84
84
78
ENDCHAR
STARTCHAR 00D6
ENCODING 214
SWIDTH 720 0
DWIDTH 6 0
BBX 6 7 0 1
BITMAP
04
78
84
84
84
84
78
ENDCHAR
STARTCHAR 00D7
ENCODING 215
SWIDTH 600 0
DWIDTH 5 0
BBX 5 8 0 0
BITMAP
20
00
78
80
F0
80
80
78
ENDCHAR
STARTCHAR 00D8
ENCODING 216
SWIDTH 600 0
DWIDTH 5 0
BBX 6 8 0 1
BITMAP
24
00
4C
88
88
88
88
78
ENDCHAR
STARTCHAR 00D9
ENCODING 217
SWIDTH 600 0
DWIDTH 5 0
BBX 6 9 0 0
BITMAP
08
14
00
4C
88
88
88
88
78
ENDCHAR
STARTCHAR 00DA
ENCODING 218
SWIDTH 600 0
DWIDTH 5 0
BBX 5 8 0 0
BITMAP
10
00
48
88
88
88
88
78
ENDCHAR
STARTCHAR 00DB
ENCODING 219
SWIDTH 600 0
DWIDTH 5 0
BBX 5 7 0 1
BITMAP
10
48
88
88
88
88
78
ENDCHAR
STARTCHAR 00DC
ENCODING 220
SWIDTH 600 0
DWIDTH 5 0
BBX 6 8 0 0
BITMAP
04
00
4C
88
88
88
88
78
ENDCHAR
STARTCHAR 00DD
ENCODING 221
SWIDTH 600 0
DWIDTH 5 0
BBX 5 8 0 0
BITMAP
10
00
88
50
50
20
20
20
ENDCHAR
STARTCHAR 00DE
ENCODING 222
SWIDTH 600 0
DWIDTH 5 0
BBX 5 6 0 2
BITMAP
78
80
F0
80
80
78
ENDCHAR
STARTCHAR 00DF
ENCODING 223
SWIDTH 600 0
DWIDTH 5 0
BBX 5 6 0 0
BITMAP
78
88
B0
88
C8
B8
ENDCHAR
STARTCHAR 00E0
ENCODING 224
SWIDTH 600 0
DWIDTH 5 0
BBX 5 8 0 0
BITMAP
20
00
20
50
50
78
88
88
ENDCHAR
STARTCHAR 00E1
ENCODING 225
SWIDTH 600 0
DWIDTH 5 0
BBX 5 8 0 0
BITMAP
10
00
20
50
50
78
88
88
ENDCHAR
STARTCHAR 00E2
ENCODING 226
SWIDTH 600 0
DWIDTH 5 0
BBX 5 8 0 0
BITMAP
20
00
20
50
50
78
88
88
ENDCHAR
STARTCHAR 00E3
ENCODING 227
SWIDTH 600 0
DWIDTH 5 0
BBX 5 8 0 0
BITMAP
30
00
20
50
50
78
88
88
ENDCHAR
STARTCHAR 00E4
ENCODING 228
SWIDTH 600 0
DWIDTH 5 0
BBX 5 6 0 2
BITMAP
20
50
50
78
88
88
ENDCHAR
STARTCHAR 00E5
ENCODING 229
SWIDTH 600 0
DWIDTH 5 0
BBX 5 7 0 -1
BITMAP
20
50
50
78
88
88
20
ENDCHAR
STARTCHAR 00E6
ENCODING 230
SWIDTH 600 0
DWIDTH 5 0
BBX 5 8 0 0
BITMAP
10
00
20
50
50
78
88
88
ENDCHAR
STARTCHAR 00E7
ENCODING 231
SWIDTH 600 0
DWIDTH 5 0
BBX 5 8 0 -2
BITMAP
78
80
80
80
80
68
10
30
ENDCHAR
STARTCHAR 00E8
ENCODING 232
SWIDTH 600 0
DWIDTH 5 0
BBX 5 8 0 0
BITMAP
20
00
78
80
F0
80
80
78
ENDCHAR
STARTCHAR 00E9
ENCODING 233
SWIDTH 600 0
DWIDTH 5 0
BBX 5 8 0 0
BITMAP
10
00
78
80
F0
80
80
78
ENDCHAR
STARTCHAR 00EA
ENCODING 234
SWIDTH 600 0
DWIDTH 5 0
BBX 5 8 0 0
BITMAP
20
00
78
80
F0
80
80
78
ENDCHAR
STARTCHAR 00EB
ENCODING 235
SWIDTH 600 0
DWIDTH 5 0
BBX 5 8 0 0
BITMAP
10
20
78
80
F0
80
80
78
ENDCHAR
STARTCHAR 00EC
ENCODING 236
SWIDTH 240 0
DWIDTH 2 0
BBX 2 8 0 0
BITMAP
80
00
40
40
40
40
40
40
ENDCHAR
STARTCHAR 00ED
ENCODING 237
SWIDTH 240 0
DWIDTH 2 0
BBX 1 8 1 0
BITMAP
80
00
80
80
80
80
80
80
ENDCHAR
STARTCHAR 00EE
ENCODING 238
SWIDTH 240 0
DWIDTH 2 0
BBX 2 8 0 0
BITMAP
40
80
40
40
40
40
40
40
ENDCHAR
STARTCHAR 00EF
ENCODING 239
SWIDTH 240 0
DWIDTH 2 0
BBX 1 7 1 1
BITMAP
80
80
80
80
80
80
80
ENDCHAR
STARTCHAR 00F0
ENCODING 240
SWIDTH 600 0
DWIDTH 5 0
BBX 5 9 0 0
BITMAP
30
10
00
20
50
50
78
88
88
ENDCHAR
STARTCHAR 00F1
ENCODING 241
SWIDTH 720 0
DWIDTH 6 0
BBX 5 6 1 0
BITMAP
F0
90
88
88
90
F0
ENDCHAR
STARTCHAR 00F2
ENCODING 242
SWIDTH 720 0
DWIDTH 6 0
BBX 6 8 0 0
BITMAP
20
00
78
84
84
84
84
78
ENDCHAR
STARTCHAR 00F3
ENCODING 243
SWIDTH 720 0
DWIDTH 6 0
BBX 6 8 0 0
BITMAP
10
00
78
84
84
84
84
78
ENDCHAR
STARTCHAR 00F4
ENCODING 244
SWIDTH 720 0
DWIDTH 6 0
BBX 6 8 0 0
BITMAP
10
00
78
84
84
84
84
78
ENDCHAR
STARTCHAR 00F5
ENCODING 245
SWIDTH 720 0
DWIDTH 6 0
BBX 6 8 0 0
BITMAP
30
00
78
84
84
84
84
78
ENDCHAR
STARTCHAR 00F6
ENCODING 246
SWIDTH 720 0
DWIDTH 6 0
BBX 6 8 0 0
BITMAP
20
00
78
84
84
84
84
78
ENDCHAR
STARTCHAR 00F7
ENCODING 247
SWIDTH 720 0
DWIDTH 6 0
BBX 6 7 0 1
BITMAP
04
78
84
84
84
84
78
ENDCHAR
STARTCHAR 00F8
ENCODING 248
SWIDTH 600 0
DWIDTH 5 0
BBX 5 7 0 -1
BITMAP
48
88
88
88
88
48
30
ENDCHAR
STARTCHAR 00F9
ENCODING 249
SWIDTH 600 0
DWIDTH 5 0
BBX 5 8 0 0
BITMAP
20
00
48
88
88
88
88
78
ENDCHAR
STARTCHAR 00FA
ENCODING 250
SWIDTH 600 0
DWIDTH 5 0
BBX 5 8 0 0
BITMAP
10
00
48
88
88
88
88
78
ENDCHAR
STARTCHAR 00FB
ENCODING 251
SWIDTH 600 0
DWIDTH 5 0
BBX 5 6 0 2
BITMAP
48
88
88
88
88
78
ENDCHAR
STARTCHAR 00FC
ENCODING 252
SWIDTH 600 0
DWIDTH 5 0
BBX 5 8 0 0
BITMAP
30
00
48
88
88
88
88
78
ENDCHAR
STARTCHAR 00FD
ENCODING 253
SWIDTH 600 0
DWIDTH 5 0
BBX 5 6 0 2
BITMAP
88
50
50
20
20
20
ENDCHAR
STARTCHAR 00FE
ENCODING 254
SWIDTH 600 0
DWIDTH 5 0
BBX 5 8 0 0
BITMAP
10
20
78
80
F0
80
80
78
ENDCHAR
STARTCHAR 00FF
ENCODING 255
SWIDTH 600 0
DWIDTH 5 0
BBX 5 8 0 0
BITMAP
40
00
88
50
50
20
20
20
ENDCHAR
STARTCHAR 0106
ENCODING 262
SWIDTH 600 0
DWIDTH 5 0
BBX 0 0 0 0
BITMAP
ENDCHAR
STARTCHAR 0107
ENCODING 263
SWIDTH 360 0
DWIDTH 3 0
BBX 0 0 0 0
BITMAP
ENDCHAR
STARTCHAR 010C
ENCODING 268
SWIDTH 600 0
DWIDTH 5 0
BBX 0 0 0 0
BITMAP
ENDCHAR
STARTCHAR 010D
ENCODING 269
SWIDTH 360 0
DWIDTH 3 0
BBX 0 0 0 0
BITMAP
ENDCHAR
STARTCHAR 0111
ENCODING 273
SWIDTH 480 0
DWIDTH 4 0
BBX 0 0 0 0
BITMAP
ENDCHAR
STARTCHAR 011E
ENCODING 286
SWIDTH 720 0
DWIDTH 6 0
BBX 0 0 0 0
BITMAP
ENDCHAR
STARTCHAR 011F
ENCODING 287
SWIDTH 480 0
DWIDTH 4 0
BBX 0 0 0 0
BITMAP
ENDCHAR
STARTCHAR 0130
ENCODING 304
SWIDTH 240 0
DWIDTH 2 0
BBX 0 0 0 0
BITMAP
ENDCHAR
STARTCHAR 0131
ENCODING 305
SWIDTH 240 0
DWIDTH 2 0
BBX 0 0 0 0
BITMAP
ENDCHAR
STARTCHAR 0141
ENCODING 321
SWIDTH 480 0
DWIDTH 4 0
BBX 0 0 0 0
BITMAP
ENDCHAR
STARTCHAR 0142
ENCODING 322
SWIDTH 120 0
DWIDTH 1 0
BBX 0 0 0 0
BITMAP
ENDCHAR
STARTCHAR 0152
ENCODING 338
SWIDTH 600 0
DWIDTH 5 0
BBX 5 9 0 -1
BITMAP
20
00
78
80
F0
80
80
58
20
ENDCHAR
STARTCHAR 0153
ENCODING 339
SWIDTH 600 0
DWIDTH 5 0
BBX 5 6 0 -1
BITMAP
88
50
50
20
20
20
ENDCHAR
STARTCHAR 015E
ENCODING 350
SWIDTH 480 0
DWIDTH 4 0
BBX 0 0 0 0
BITMAP
ENDCHAR
STARTCHAR 015F
ENCODING 351
SWIDTH 360 0
DWIDTH 3 0
BBX 0 0 0 0
BITMAP
ENDCHAR
STARTCHAR 0160
ENCODING 352
SWIDTH 600 0
DWIDTH 5 0
BBX 5 9 0 0
BITMAP
80
20
00
78
80
F0
80
80
78
ENDCHAR
STARTCHAR 0161
ENCODING 353
SWIDTH 600 0
DWIDTH 5 0
BBX 5 8 0 0
BITMAP
10
00
88
50
50
20
20
20
ENDCHAR
STARTCHAR 0178
ENCODING 376
SWIDTH 720 0
DWIDTH 6 0
BBX 6 9 0 0
BITMAP
10
20
04
78
84
84
84
84
78
ENDCHAR
STARTCHAR 017D
ENCODING 381
SWIDTH 480 0
DWIDTH 4 0
BBX 0 0 0 0
BITMAP
ENDCHAR
STARTCHAR 017E
ENCODING 382
SWIDTH 360 0
DWIDTH 3 0
BBX 0 0 0 0
BITMAP
ENDCHAR
STARTCHAR 0192
ENCODING 402
SWIDTH 600 0
DWIDTH 5 0
BBX 5 9 0 0
BITMAP
08
20
00
20
50
50
78
88
88
ENDCHAR
STARTCHAR 02C6
ENCODING 710
SWIDTH 600 0
DWIDTH 5 0
BBX 5 8 0 0
BITMAP
10
00
20
50
50
78
88
88
ENDCHAR
STARTCHAR 02C7
ENCODING 711
SWIDTH 480 0
DWIDTH 4 0
BBX 0 0 0 0
BITMAP
ENDCHAR
STARTCHAR 02DA
ENCODING 730
SWIDTH 480 0
DWIDTH 4 0
BBX 0 0 0 0
BITMAP
ENDCHAR
STARTCHAR 02DB
ENCODING 731
SWIDTH 480 0
DWIDTH 4 0
BBX 0 0 0 0
BITMAP
ENDCHAR
STARTCHAR 02DC
ENCODING 732
SWIDTH 720 0
DWIDTH 6 0
BBX 6 8 0 1
BITMAP
18
00
78
84
84
84
84
78
ENDCHAR
STARTCHAR 03A9
ENCODING 937
SWIDTH 720 0
DWIDTH 6 0
BBX 0 0 0 0
BITMAP
ENDCHAR
STARTCHAR 03C0
ENCODING 960
SWIDTH 600 0
DWIDTH 5 0
BBX 0 0 0 0
BITMAP
ENDCHAR
STARTCHAR 2013
ENCODING 8211
SWIDTH 720 0
DWIDTH 6 0
BBX 6 9 0 0
BITMAP
04
10
00
78
84
84
84
84
78
ENDCHAR
STARTCHAR 2014
ENCODING 8212
SWIDTH 720 0
DWIDTH 6 0
BBX 6 9 0 0
BITMAP
80
50
00
78
84
84
84
84
78
ENDCHAR
STARTCHAR 2018
ENCODING 8216
SWIDTH 240 0
DWIDTH 2 0
BBX 1 2 1 4
BITMAP
80
80
ENDCHAR
STARTCHAR 2019
ENCODING 8217
SWIDTH 240 0
DWIDTH 2 0
BBX 1 2 0 4
BITMAP
80
80
ENDCHAR
STARTCHAR 201A
ENCODING 8218
SWIDTH 600 0
DWIDTH 5 0
BBX 5 8 0 0
BITMAP
30
00
20
50
50
78
88
88
ENDCHAR
STARTCHAR 201C
ENCODING 8220
SWIDTH 600 0
DWIDTH 5 0
BBX 5 9 0 0
BITMAP
80
20
00
78
80
F0
80
80
78
ENDCHAR
STARTCHAR 201D
ENCODING 8221
SWIDTH 600 0
DWIDTH 5 0
BBX 5 9 0 0
BITMAP
08
20
00
78
80
F0
80
80
78
ENDCHAR
STARTCHAR 201E
ENCODING 8222
SWIDTH 600 0
DWIDTH 5 0
BBX 5 9 0 0
BITMAP
80
20
00
20
50
50
78
88
88
ENDCHAR
STARTCHAR 2020
ENCODING 8224
SWIDTH 720 0
DWIDTH 6 0
BBX 6 7 0 -1
BITMAP
78
84
84
84
84
48
30
ENDCHAR
STARTCHAR 2021
ENCODING 8225
SWIDTH 720 0
DWIDTH 6 0
BBX 6 9 0 0
BITMAP
30
10
00
78
84
84
84
84
78
ENDCHAR
STARTCHAR 2022
ENCODING 8226
SWIDTH 600 0
DWIDTH 5 0
BBX 5 9 0 0
BITMAP
30
20
00
78
80
F0
80
80
78
ENDCHAR
STARTCHAR 2026
ENCODING 8230
SWIDTH 600 0
DWIDTH 5 0
BBX 5 9 0 0
BITMAP
08
20
00
20
50
50
78
88
88
ENDCHAR
STARTCHAR 2030
ENCODING 8240
SWIDTH 600 0
DWIDTH 5 0
BBX 5 9 0 0
BITMAP
08
20
00
78
80
F0
80
80
78
ENDCHAR
STARTCHAR 2039
ENCODING 8249
SWIDTH 600 0
DWIDTH 5 0
BBX 5 9 0 0
BITMAP
08
20
00
78
80
F0
80
80
78
ENDCHAR
STARTCHAR 203A
ENCODING 8250
SWIDTH 600 0
DWIDTH 5 0
BBX 5 6 0 2
BITMAP
88
50
50
20
20
20
ENDCHAR
STARTCHAR 20A3
ENCODING 8355
SWIDTH 840 0
DWIDTH 7 0
BBX 0 0 0 0
BITMAP
ENDCHAR
STARTCHAR 2122
ENCODING 8482
SWIDTH 720 0
DWIDTH 6 0
BBX 6 9 0 0
BITMAP
30
10
00
78
84
84
84
84
78
ENDCHAR
STARTCHAR 2202
ENCODING 8706
SWIDTH 480 0
DWIDTH 4 0
BBX 0 0 0 0
BITMAP
ENDCHAR
STARTCHAR 2206
ENCODING 8710
SWIDTH 480 0
DWIDTH 4 0
BBX 0 0 0 0
BITMAP
ENDCHAR
STARTCHAR 220F
ENCODING 8719
SWIDTH 720 0
DWIDTH 6 0
BBX 0 0 0 0
BITMAP
ENDCHAR
STARTCHAR 2211
ENCODING 8721
SWIDTH 600 0
DWIDTH 5 0
BBX 0 0 0 0
BITMAP
ENDCHAR
STARTCHAR 2212
ENCODING 8722
SWIDTH 720 0
DWIDTH 6 0
BBX 0 0 0 0
BITMAP
ENDCHAR
STARTCHAR 2215
ENCODING 8725
SWIDTH 120 0
DWIDTH 1 0
BBX 0 0 0 0
BITMAP
ENDCHAR
STARTCHAR 2219
ENCODING 8729
SWIDTH 240 0
DWIDTH 2 0
BBX 1 8 1 1
BITMAP
80
00
80
80
80
80
80
80
ENDCHAR
STARTCHAR 221A
ENCODING 8730
SWIDTH 600 0
DWIDTH 5 0
BBX 0 0 0 0
BITMAP
ENDCHAR
STARTCHAR 221E
ENCODING 8734
SWIDTH 720 0
DWIDTH 6 0
BBX 0 0 0 0
BITMAP
ENDCHAR
STARTCHAR 222B
ENCODING 8747
SWIDTH 480 0
DWIDTH 4 0
BBX 0 0 0 0
BITMAP
ENDCHAR
STARTCHAR 2248
ENCODING 8776
SWIDTH 720 0
DWIDTH 6 0
BBX 0 0 0 0
BITMAP
ENDCHAR
STARTCHAR 2260
ENCODING 8800
SWIDTH 720 0
DWIDTH 6 0
BBX 0 0 0 0
BITMAP
ENDCHAR
STARTCHAR 2264
ENCODING 8804
SWIDTH 720 0
DWIDTH 6 0
BBX 0 0 0 0
BITMAP
ENDCHAR
STARTCHAR 2265
ENCODING 8805
SWIDTH 720 0
DWIDTH 6 0
BBX 0 0 0 0
BITMAP
ENDCHAR
STARTCHAR 25CA
ENCODING 9674
SWIDTH 480 0
DWIDTH 4 0
BBX 0 0 0 0
BITMAP
ENDCHAR
STARTCHAR F000
ENCODING 61440
SWIDTH 720 0
DWIDTH 6 0
BBX 0 0 0 0
BITMAP
ENDCHAR
STARTCHAR F001
ENCODING 61441
SWIDTH 480 0
DWIDTH 4 0
BBX 0 0 0 0
BITMAP
ENDCHAR
STARTCHAR F002
ENCODING 61442
SWIDTH 480 0
DWIDTH 4 0
BBX 0 0 0 0
BITMAP
ENDCHAR
ENDFONT
